<svg xmlns="http://www.w3.org/2000/svg" xmlns:xlink="http://www.w3.org/1999/xlink" width="185" height="44.057" viewBox="0 0 185 44.057">
  <defs>
    <clipPath id="clip-path">
      <rect id="Rectangle_14" data-name="Rectangle 14" width="185" height="44.057" fill="#fdd600"/>
    </clipPath>
  </defs>
  <g id="Group_123" data-name="Group 123" transform="translate(0 0)">
    <g id="Group_64" data-name="Group 64" transform="translate(0 0)" clip-path="url(#clip-path)">
      <path id="Path_102" data-name="Path 102" d="M205.711,34.852l-.57.31.57-.309a.566.566,0,0,1,.281-.223.568.568,0,0,0-.281.222" transform="translate(-76.357 -12.89)" fill="#fdd600"/>
      <path id="Path_104" data-name="Path 104" d="M18.809,29.305c-.528-.126,3.379-3.57,3.386-4.741a1.85,1.85,0,0,0-2.579-1.527l-2.127.907-6.683,3.661c-.231.114-2.387,1.59-2.682,1.669-.805.217-1.65,1.261-2.294.74C5.053,29.386,16.067,19.6,14.544,18.4s-8.588,1.856-8.825,1.954A28.735,28.735,0,0,1,.278,22.809c-.828.205.44,1.576.662,1.552a6.62,6.62,0,0,0,3.3-.736c2.792-1.48,9.41-6.96,6.477-2.7s-7.4,8.55-7.708,9.333A1.345,1.345,0,0,0,3.866,32.2a5.872,5.872,0,0,0,3.991-.478c1.588-.914,3.039-2.072,4.642-2.954,1.945-1.069,3.732-2.5,5.96-2.971.876-.184-3.941,4.123-3.194,5.94s4.992.208,5.917-.832,2.079-2,1.605-2.891-2.255,1.748-3.979,1.288" transform="translate(0 -6.744)" fill="#fdd600"/>
      <path id="Path_105" data-name="Path 105" d="M69.036,30.029c-3.494,1.088-9.756,2.221-13.479,2.009-1.515-.086,2.564-3.01,2.171-5.039a2.137,2.137,0,0,0-2.958-1.522,42.644,42.644,0,0,0-7.784,4.382c-.872.662-1.386.575-1.257-.824.137-1.509-1.588-2.908-3.154-2.836-2.241.1-1.818.478-3.374,1.59,0,0-2.354,1.644-1.077,2.848,1.2,1.133,4.309-4.077,5.329-1.6.528,1-.49,1.738-1.171,2.421-.04.04-2.047,1.45-2.081,1.5a1.3,1.3,0,0,0-.062,1.74,1.53,1.53,0,0,0,1.9.289c.777-.483,10.648-7.2,12.649-7.252.611-.016.856-.288.861.573.01,1.89-8.966,5.8.531,5.617a85.452,85.452,0,0,0,14.97-2.5c.375-.112.83-.18.942-.632a1.173,1.173,0,0,0-.417-1.063c-1.045-1.194-1.67.036-2.541.308" transform="translate(-14.048 -9.427)" fill="#fdd600"/>
      <path id="Path_106" data-name="Path 106" d="M265.252,25.09l-.648-.379-1.5.059a1.223,1.223,0,0,1-.869.71,10.168,10.168,0,0,1-3.238.913,30.829,30.829,0,0,1-9.151,3.352,51.052,51.052,0,0,1-11.558,1.5,11.756,11.756,0,0,1-3.674-.745,1.284,1.284,0,0,1-.91-1.135l-.037-.057c-1.3-1.03-.756-2.149-.16-3.271a16.787,16.787,0,0,1,4.171-6.718c1.134-1.254,2.737-2.037,3.532-3.606a3.519,3.519,0,0,1-4.192.009l-.436-.064-1.649,1.175c-.075.575-.519.746-.927.959.407-.212.851-.384.927-.959-3.361,1.135-9.856,5.507-10.776,6.759s-1.023,1.971-.065,1.871,7.271-4.968,9.649-6.522l1.4-.622c.342-.152.7-.625,1.052-.254.447.471-.116.807-.372,1.135-.28.358-.631.661-.931,1.005-2.153,2.465-3.692,5.2-3.718,8.587,0,0-.161,1.767,2.119,3.022.008.013.018.026.027.039l.135.046c3.249,1.67,11.109,2.3,30.1-3.832l.583-.352a2.242,2.242,0,0,1,1.083-1.16c.171-.486.42-.971.024-1.467" transform="translate(-83.161 -5.829)" fill="#fdd600"/>
      <path id="Path_107" data-name="Path 107" d="M249.018,9.886l3.006-2.573a.7.7,0,0,1,.638-.583l.743-.47a.68.68,0,0,1,.75-.532l.638-.454a.715.715,0,0,1,.7-.6c1.057-.994,2.442-1.63,3.209-2.941.382-.338.428-.667-.026-.983a.226.226,0,0,0-.138-.2c-.424-.692-.872-.74-1.347-.054a1.632,1.632,0,0,0-.989,1.076l-.35.382a.961.961,0,0,0-.991.674,22.68,22.68,0,0,1-5.917,4.2,8.537,8.537,0,0,0-3.73,2.607c-.423-.174-.68,0-.824.4l.436.064a3.52,3.52,0,0,0,4.192-.008" transform="translate(-90.966 0)" fill="#fdd600"/>
      <path id="Path_108" data-name="Path 108" d="M292.491,40.678c-.911-.643-1.823-.927-2.742-.013-1.278.888-.419,1.3.384,1.725l.643.465c1.364-.1,2.138-.667,1.714-2.177" transform="translate(-107.607 -14.919)" fill="#fdd600"/>
      <path id="Path_109" data-name="Path 109" d="M185.02,28.95c-.526-.3-4.263,2.165-5.369,2.629a.7.7,0,0,1-.8-.047c-.3-.289-.184-.649-.051-.951a1.617,1.617,0,0,1,.51-.665,1.259,1.259,0,0,0,.37-1.929c-.595-.918-1.288-.419-1.922-.034-.359.218-.686.416-1.1.181-.144-.7-.664-.849-1.273-.865l-.67-.091a13.132,13.132,0,0,0-8.189,4.405l-.411.619c-.122.11-.227.289-.367.321-.623.148-1.392.785-1.856.147-.516-.709.222-1.3.728-1.812a11.059,11.059,0,0,0,1.927-2.16c.225-.384.657-.729.151-1.176-.4-.353-.854-.618-1.392-.284-1.011.63-2.01,1.28-3.015,1.921a2.451,2.451,0,0,0-1.409,1.008.664.664,0,0,0-.264.175c-.612-.094-1.084.3-1.624.459-1.077.313-2.152.5-2.943-.613a7.051,7.051,0,0,1,1.11-1.49c.532-.741,1-1.569.125-2.42-.35-.4-.711-.514-1.091-.037a.119.119,0,0,0-.133.106c-2.944,1.327-5.362,3.444-7.927,5.332-2.6,1.912-4.786,4.446-8.183,5.1-.442.085-.827.591-1.188.952-1.612,1.618-3.207,3.254-4.807,4.884l-.458.926-.137.014-.135-.019-.423.412c-2.491,2.918-4.661,6.207-8.969,7.824a23.5,23.5,0,0,1,5.576-7.182l.309-.3L131,42.662l-1.225-.4-.35.274a1.727,1.727,0,0,0-.991,1.122l-.008.009a1.236,1.236,0,0,0-.976,1.039l-.816.907-1.087,1.09c-1.092,1.025-1.809,2.362-2.808,3.446-.819.887-1.466,1.74-.676,2.836.8,1.113,2,.72,2.982.282a13.438,13.438,0,0,0,2.586-1.664c2.885-2.2,4.922-5.179,7.221-7.918,2.379-3.289,6.01-4.794,9.422-6.611a3.332,3.332,0,0,1,1.369-1.127c.411-.411.778-.889,1.43-.928a1.712,1.712,0,0,1,1.013-.746,5.261,5.261,0,0,1,2.237-2.117c.62-.553,1.208-1.148,1.866-1.65.929-.709,1.5-.426,1.663.724-.028.571.549.793.721,1.249l1.134.077c.3.566.949.3,1.37.573l1.063-.059,2.743-1.213a1.3,1.3,0,0,1,1.23-.292c.318-.363.4-.611.327-.74.077.129-.009.377-.326.74a3.532,3.532,0,0,0-.538,1.73,2.534,2.534,0,0,0,2.724,1.247l3.171.075,2.075-.6a4.631,4.631,0,0,0,3.126-1.552l1.337-.5c.276,1.76,1.527,1.786,2.884,1.625a.213.213,0,0,1,.227.075,6.676,6.676,0,0,0,4.123-.824,40.957,40.957,0,0,0,4.168-2.654.832.832,0,0,0-.4-1.233m-10.363,2.662-.569.309.569-.31a.572.572,0,0,1,.282-.222.57.57,0,0,0-.282.223m-.12-1.433c-.758.345-1.477.775-2.214,1.168l-2.848,1.232h0c-.5.134-1.1.591-1.482-.014-.313-.5.243-.9.532-1.289,1.959-1.167,3.858-2.469,6.187-2.827.8.664.922,1.231-.174,1.731" transform="translate(-45.302 -9.649)" fill="#fdd600"/>
      <path id="Path_110" data-name="Path 110" d="M126.147,34.428a46.159,46.159,0,0,0,4.732-2.3c.456-.2.937-.348,1.251.062.355.463-.073.851-.387,1.17-.4.406-.854.76-1.261,1.16q-4.2,4.134-8.391,8.277l1.226.4.859-.417c3.536-3.659,7.384-6.983,11.165-10.378a4.282,4.282,0,0,0,1.84-2.791c.045-.571.167-1.151-.456-1.535s-.887.223-1.327.4c-1.048.424-2.143,1.761-3.251.732-1.662-1.543-3.253-1.141-4.887-.3-.631.324-1.829.161-1.705,1.438l.723.433a9.441,9.441,0,0,1,2.858-.964c.483-.085,1.132-.235,1.385.336a1.084,1.084,0,0,1-.653,1.392c-1.259.481-2.354,1.379-3.733,1.527-.483.051-1.13.328-1.44-.161-.385-.61.173-1.031.595-1.424a2.457,2.457,0,0,0,.3-.414c-.01-.242-.019-.483-.029-.724-1.661-.316-2.133,1.006-2.812,2.043l-.937.081c-.483-.525-1.116-.9-1.8-.438a10.924,10.924,0,0,1-1.752.88l-.2.058c-.009.014-.019.023-.028.036-1.217.494-2.512.913-3.033,1.076l-.242.075c-1.02.158-2.048.272-3.055.486-.907.193-1.783.257-2.237-.692a2.125,2.125,0,0,1,.746-2.745,4.889,4.889,0,0,1,2.3-1.1,7.455,7.455,0,0,0,1.849-.334c.57-.251,1.433-.489,1.232-1.384a1.444,1.444,0,0,0-1.623-1.012,4.768,4.768,0,0,0-2.775.8c-2.691,2.136-5.734,2.313-8.937,1.842-.441-.065-1.033-.218-1.172.364s.309.9.863,1.06a6.462,6.462,0,0,0,2.88.27c2.443-.516,2.42-.512,2.858,1.859a23.3,23.3,0,0,0,.666,2.308c1.728.947,3.6.806,5.463.729,1.316-.05,8.916-2.713,8.916-2.713.979,1.224,2.185.919,3.421.529" transform="translate(-37.614 -10.19)" fill="#fdd600"/>
    </g>
  </g>
</svg>
