<svg xmlns="http://www.w3.org/2000/svg" width="43" height="43" viewBox="0 0 43 43">
  <path id="Exclusion_1" data-name="Exclusion 1" d="M21.5,47A21.5,21.5,0,0,1,6.3,10.3,21.5,21.5,0,1,1,36.7,40.7,21.359,21.359,0,0,1,21.5,47Zm1-32a8.7,8.7,0,0,0-3.1.55,8.482,8.482,0,0,0-2.551,1.5,7,7,0,0,0-1.724,2.226A6.133,6.133,0,0,0,14.5,22v6a6.14,6.14,0,0,0,.626,2.725A7.006,7.006,0,0,0,16.85,32.95a8.487,8.487,0,0,0,2.551,1.5,8.713,8.713,0,0,0,3.1.55h6V31h-6a4.616,4.616,0,0,1-2.825-.875A2.594,2.594,0,0,1,18.5,28V22a2.594,2.594,0,0,1,1.175-2.125A4.616,4.616,0,0,1,22.5,19h6V15Z" transform="translate(0 -4)" opacity="0.5"/>
</svg>
