<svg xmlns="http://www.w3.org/2000/svg" xmlns:xlink="http://www.w3.org/1999/xlink" width="35.167" height="35.167" viewBox="0 0 35.167 35.167">
  <defs>
    <clipPath id="clip-path">
      <rect id="Rectangle_34" data-name="Rectangle 34" width="35.167" height="35.167" fill="none"/>
    </clipPath>
  </defs>
  <g id="Group_161" data-name="Group 161" transform="translate(0 0)">
    <path id="Path_116" data-name="Path 116" d="M35.59,26.74l1.279.156L36.2,25.148l1,.763.094-1.38.794,1.881.755-.7-.266,1,1.142-.027-.876.8.935.935-1.036-.047.328,1.834-.809-1.318-.344,1.165-.4-1.036-.5,1.306-.18-2.432Z" transform="translate(-21.673 -14.938)"/>
    <g id="Group_155" data-name="Group 155" transform="translate(0 0)">
      <g id="Group_154" data-name="Group 154" transform="translate(0 0)" clip-path="url(#clip-path)">
        <path id="Path_117" data-name="Path 117" d="M17.581,0A17.583,17.583,0,1,0,35.167,17.581,17.582,17.582,0,0,0,17.581,0m-1,8.059,1.576.618,1.631,2.5-.035,3.273-1.369,2.229-1.893,1.177-2.307-.68-2.022-1.99L11.743,11.9l1.6-3.121,2.127-.931Zm-7.9,3.985,2.073-3.367,3.191-.907L11.559,8.99l-1.416,3.117.254,3.461,2.076,2.143,2.749.72-3.035-.407-1.732-.958-1.142-1.6ZM23.908,19.6l-2.819,3.785-4.208,3.754L11.465,28.23,9.71,27.424l.727-2.1,5.5-3.332,5.013-4.8,4.211-2.729,1.83.833.211.97Zm4.646-4.876-.207,1.783L27.9,14.6l-2.5-1,1.967.106-.109-1.025,1.017,1.287,1.955-1.13.61.454-.063.524Z" transform="translate(0 0)"/>
      </g>
    </g>
  </g>
</svg>
