<svg id="Group_159" data-name="Group 159" xmlns="http://www.w3.org/2000/svg" xmlns:xlink="http://www.w3.org/1999/xlink" width="34.754" height="34.75" viewBox="0 0 34.754 34.75">
  <defs>
    <clipPath id="clip-path">
      <rect id="Rectangle_32" data-name="Rectangle 32" width="34.754" height="34.75" fill="none"/>
    </clipPath>
  </defs>
  <g id="Group_149" data-name="Group 149" clip-path="url(#clip-path)">
    <path id="Path_113" data-name="Path 113" d="M17.374,0A17.375,17.375,0,1,0,34.753,17.375,17.376,17.376,0,0,0,17.374,0m5.843,4.665,2.427.572-3.057,8.2-1.8-.448ZM8.358,19.126c-.2.12-.487.3-.877.541A3.816,3.816,0,0,0,7.952,20a.518.518,0,0,1,.294.433.569.569,0,0,1-.043.182.562.562,0,0,0-.043.166.231.231,0,0,1-.209.085,1.176,1.176,0,0,1-.819-.278.249.249,0,0,0-.042.108,1.448,1.448,0,0,0,.363.63v.22a2.5,2.5,0,0,1-.459.2c-.151,0-.317-.151-.5-.448-.128-.213-.263-.421-.4-.626-.167.151-.34.3-.514.46a1,1,0,0,1-.6.305.912.912,0,0,1-.417-.151v-.267a4.684,4.684,0,0,1,.765-.835c-.077-.112-.274-.185-.6-.22a1.145,1.145,0,0,1-.626-.2.818.818,0,0,1,.529-.638,7.225,7.225,0,0,1,.861-.031,3.388,3.388,0,0,0-.278-.417,1.212,1.212,0,0,1-.235-.39.5.5,0,0,1,.213-.375.65.65,0,0,1,.371-.182c.166,0,.344.209.529.626.139.278.274.564.4.85.251-.178.5-.352.753-.529a3.386,3.386,0,0,1,.707-.429q.2,0,.3.278a1.5,1.5,0,0,1,.1.526Zm3.018,6.906c-.12.073-.3.185-.533.332a2.445,2.445,0,0,0,.286.2.322.322,0,0,1,.182.267.368.368,0,0,1-.027.108.406.406,0,0,0-.027.1c-.02.035-.062.05-.128.05a.714.714,0,0,1-.5-.17.142.142,0,0,0-.027.07.913.913,0,0,0,.22.383v.135a1.759,1.759,0,0,1-.279.12c-.092,0-.193-.093-.309-.274q-.116-.2-.243-.383l-.317.282a.607.607,0,0,1-.367.185.543.543,0,0,1-.251-.093v-.162a2.731,2.731,0,0,1,.464-.51c-.043-.066-.167-.112-.364-.135a.7.7,0,0,1-.383-.12.509.509,0,0,1,.321-.39,4.557,4.557,0,0,1,.529-.019c0-.008-.058-.093-.17-.255a.777.777,0,0,1-.147-.236.315.315,0,0,1,.135-.232.369.369,0,0,1,.224-.108q.15,0,.325.383c.085.17.166.344.243.518.155-.108.309-.216.46-.325a2.192,2.192,0,0,1,.433-.263c.081,0,.143.058.185.17a.917.917,0,0,1,.062.325Zm9.515,2.643c-.217.135-.545.336-.978.607a4.581,4.581,0,0,0,.526.371.583.583,0,0,1,.328.483.605.605,0,0,1-.046.2.618.618,0,0,0-.046.189.264.264,0,0,1-.235.093,1.3,1.3,0,0,1-.916-.313.414.414,0,0,0-.046.124,1.6,1.6,0,0,0,.4.7v.251a2.815,2.815,0,0,1-.511.216c-.166,0-.352-.166-.56-.5-.143-.236-.294-.471-.448-.7-.189.166-.379.34-.576.514a1.106,1.106,0,0,1-.669.34,1,1,0,0,1-.468-.17v-.294a5.087,5.087,0,0,1,.854-.931c-.081-.124-.305-.209-.668-.251a1.226,1.226,0,0,1-.7-.216.92.92,0,0,1,.587-.715,9.125,9.125,0,0,1,.966-.031,3.787,3.787,0,0,0-.313-.464,1.473,1.473,0,0,1-.263-.437.567.567,0,0,1,.24-.421.721.721,0,0,1,.414-.2c.185,0,.383.236.591.7.154.313.305.626.448.947.282-.2.56-.394.839-.587a3.616,3.616,0,0,1,.792-.483c.147,0,.259.1.336.309a1.714,1.714,0,0,1,.116.591Zm1.441-2.98-3.713-.746,1.766-5.341-2.558,4.962-3.749-2.45,3.342-3.671L13.138,21.63l-2.326-2.585L19.04,15.06A22.925,22.925,0,0,1,22.4,16.3c.082,2.937-.066,9.4-.066,9.4m4.947-2.408-.638.394a2.6,2.6,0,0,0,.344.243.374.374,0,0,1,.213.313.332.332,0,0,1-.031.131.419.419,0,0,0-.031.124.172.172,0,0,1-.151.058.842.842,0,0,1-.6-.2.159.159,0,0,0-.031.081,1.036,1.036,0,0,0,.263.456v.162a1.8,1.8,0,0,1-.336.139c-.109,0-.228-.108-.364-.321-.092-.158-.193-.309-.294-.456-.119.108-.247.216-.374.332a.715.715,0,0,1-.437.224.676.676,0,0,1-.3-.112v-.193a3.366,3.366,0,0,1,.556-.607c-.054-.081-.2-.135-.437-.162a.819.819,0,0,1-.456-.143.612.612,0,0,1,.386-.464,5.274,5.274,0,0,1,.626-.019,2.049,2.049,0,0,0-.2-.305.929.929,0,0,1-.174-.282.369.369,0,0,1,.158-.274.446.446,0,0,1,.266-.131c.124,0,.252.151.386.456.1.2.2.41.294.618.182-.131.364-.259.549-.386a2.427,2.427,0,0,1,.514-.313c.1,0,.167.066.217.2a1.109,1.109,0,0,1,.077.386Z" transform="translate(0.001)"/>
  </g>
</svg>
