<svg xmlns="http://www.w3.org/2000/svg" xmlns:xlink="http://www.w3.org/1999/xlink" width="35.432" height="35.432" viewBox="0 0 35.432 35.432">
  <defs>
    <clipPath id="clip-path">
      <rect id="Rectangle_35" data-name="Rectangle 35" width="35.432" height="35.432" transform="translate(0 0)" fill="none"/>
    </clipPath>
  </defs>
  <g id="Group_158" data-name="Group 158" transform="translate(0 0)">
    <g id="Group_157" data-name="Group 157" transform="translate(0 0)" clip-path="url(#clip-path)">
      <path id="Path_118" data-name="Path 118" d="M17.717,0A17.716,17.716,0,1,0,35.431,17.718,17.716,17.716,0,0,0,17.717,0m-.035,6.237,4.129.725-1.135,8.932-6.249.051L13.344,6.651ZM12.895,16.78l4.338.362L22.4,16.78l.619.516-.776.772-4.854.311-4.334-.465L12.43,17.4Zm9.286,2.411-.106,1.3L19.313,21.5l-.067,1.887-1.607.453-1.19-.418-.039-1.974-2.687-.859-.138-1.363,3.94.489ZM10.227,15.385l1.8.032.126.839-.571.457.189,3.526,3.412,1.994.032,1.19-4.231-2.762-.347-3.881-.662-.559Zm1.344,13.4L10.5,28.761l-.3-.6.422-.839.626-.016.583.67Zm6.974.41-1.068-.024-.3-.6.422-.839.626-.016.587.67Zm-.244-3.18V27.1h-.595V26.051l-.8-.489-5,.7-.28.63-.768-.244.559-.91,6.6-1.221,6.221,1.119.071.8-.595.209v-.595l-4.472-.662Zm6.576,2.624L23.8,28.616l-.292-.607.418-.835.63-.016.583.67Zm-.083-11.86-.347,3.881-4.231,2.762.032-1.19,3.412-1.994.189-3.526-.567-.457.126-.839,1.8-.032.252.835Z" transform="translate(0.001 0)"/>
    </g>
  </g>
</svg>
