<svg id="Component_7_1" data-name="Component 7 – 1" xmlns="http://www.w3.org/2000/svg" width="606.837" height="144.515" viewBox="0 0 606.837 144.515">
  <g id="Group_66" data-name="Group 66" transform="translate(0 37.309)">
    <path id="Path_133" data-name="Path 133" d="M112.7,286.125c-1.732-.413,11.082-11.709,11.1-15.551s-4.493-6.565-8.46-5.01l-6.976,2.974L86.444,280.549c-.758.373-7.829,5.213-8.8,5.474-2.643.713-5.412,4.139-7.526,2.427-2.546-2.062,33.582-34.166,28.586-38.105s-28.171,6.088-28.949,6.412a94.32,94.32,0,0,1-17.847,8.059c-2.718.671,1.442,5.171,2.17,5.089a21.721,21.721,0,0,0,10.839-2.413c9.156-4.857,30.864-22.831,21.246-8.843S61.9,286.694,60.882,289.263c-1.081,2.731-.083,5.857,2.8,6.37,4.355.773,9.081.737,13.091-1.57,5.21-3,9.967-6.8,15.227-9.688,6.38-3.507,12.24-8.215,19.549-9.748,2.873-.6-12.928,13.525-10.475,19.484s16.373.682,19.411-2.73,6.82-6.552,5.265-9.482S118.352,287.632,112.7,286.125Z" transform="translate(-51 -249.429)" fill="#f15942"/>
    <path id="Path_134" data-name="Path 134" d="M258.679,282.312c-3.427-3.917-5.478.121-8.336,1.01-11.458,3.568-32,7.285-44.214,6.589-4.97-.283,8.413-9.871,7.12-16.531-.683-3.518-4.245-6.745-9.7-4.992-5.657,1.818-20.489,10.544-25.532,14.371-2.865,2.173-4.548,1.888-4.128-2.7.453-4.951-5.208-9.537-10.344-9.3-7.354.335-5.965,1.568-11.068,5.216,0,0-7.723,5.392-3.533,9.34,3.948,3.717,14.132-13.375,17.478-5.261,1.732,3.27-1.608,5.7-3.84,7.939-.133.133-6.716,4.759-6.825,4.912-1.334,1.864-1.788,4-.2,5.707a5.012,5.012,0,0,0,6.235.947c2.55-1.583,34.926-23.607,41.494-23.786,2.005-.055,2.808-.945,2.823,1.879.033,6.2-29.411,19.031,1.743,18.427,11.5-.223,39.242-5.258,49.1-8.2,1.23-.367,2.723-.591,3.093-2.074C260.389,284.429,259.608,283.374,258.679,282.312Z" transform="translate(-69.977 -253.053)" fill="#f15942"/>
  </g>
  <g id="Group_67" data-name="Group 67" transform="translate(208.097)">
    <path id="Path_136" data-name="Path 136" d="M578.45,292.462l-1.869,1.017,1.869-1.016a1.879,1.879,0,0,1,.923-.733A1.877,1.877,0,0,0,578.45,292.462Z" transform="translate(-362.238 -220.421)" fill="#f15942"/>
    <path id="Path_137" data-name="Path 137" d="M760.626,274.063l-2.125-1.24-4.909.192a4.018,4.018,0,0,1-2.852,2.328,33.4,33.4,0,0,1-10.622,3c-9.337,5.482-19.645,8.743-30.016,10.994-12.419,2.7-25.01,5.113-37.911,4.926a38.575,38.575,0,0,1-12.052-2.441,4.211,4.211,0,0,1-2.987-3.723c0,.006-.121-.188-.121-.188-4.249-3.378-2.48-7.05-.524-10.731,2.4-8.693,7.735-15.465,13.681-22.037,3.719-4.111,8.977-6.679,11.586-11.827-4.577,3.356-9.162,2.726-13.752.028l-1.429-.212-5.409,3.856c-.248,1.886-1.7,2.45-3.04,3.144,1.337-.694,2.792-1.259,3.04-3.145-11.025,3.725-32.329,18.064-35.346,22.174s-3.357,6.462-.212,6.136,23.851-16.3,31.65-21.394q2.3-1.016,4.6-2.038c1.121-.5,2.3-2.049,3.451-.832,1.464,1.546-.381,2.646-1.221,3.722-.918,1.176-2.068,2.167-3.053,3.3-7.063,8.088-12.11,17.055-12.2,28.168,0,0-.527,5.8,6.95,9.91.027.045.061.084.088.13l.444.149c10.659,5.477,36.44,7.534,98.748-12.568l1.913-1.156a7.355,7.355,0,0,1,3.553-3.8C761.109,277.278,761.927,275.688,760.626,274.063Z" transform="translate(-371.43 -210.883)" fill="#f15942"/>
    <path id="Path_138" data-name="Path 138" d="M692.317,235.44l9.86-8.437a2.286,2.286,0,0,1,2.093-1.915l2.435-1.541a2.236,2.236,0,0,1,2.462-1.747l2.094-1.487a2.341,2.341,0,0,1,2.3-1.976c3.466-3.262,8.011-5.347,10.525-9.647,1.252-1.108,1.4-2.187-.085-3.223a.734.734,0,0,0-.451-.669c-1.392-2.274-2.862-2.427-4.42-.178a5.357,5.357,0,0,0-3.246,3.529l-1.148,1.253c-1.51.11-2.775.58-3.253,2.21a74.392,74.392,0,0,1-19.41,13.785c-4.485,2.14-9.244,4.157-12.236,8.552-1.387-.571-2.23-.014-2.7,1.306q.715.106,1.428.211C683.155,238.166,687.74,238.8,692.317,235.44Z" transform="translate(-381.971 -203.01)" fill="#f15942"/>
    <path id="Path_139" data-name="Path 139" d="M802.81,307.655c-2.988-2.112-5.981-3.038-8.993-.044-4.192,2.912-1.375,4.265,1.259,5.658l2.109,1.524C801.661,314.465,804.2,312.606,802.81,307.655Z" transform="translate(-404.45 -223.163)" fill="#f15942"/>
    <path id="Path_140" data-name="Path 140" d="M570.494,279.354c-1.724-.973-13.984,7.1-17.612,8.621a2.294,2.294,0,0,1-2.637-.154c-.985-.95-.6-2.128-.169-3.122a5.312,5.312,0,0,1,1.674-2.179c2.526-1.759,2.755-3.942,1.212-6.326-1.95-3.011-4.223-1.374-6.3-.112-1.178.715-2.25,1.366-3.62.6-.471-2.3-2.177-2.785-4.176-2.838l-2.2-.3A43.093,43.093,0,0,0,509.8,287.993l-1.346,2.029c-.4.364-.745.947-1.2,1.055-2.045.483-4.569,2.574-6.091.482-1.693-2.327.727-4.269,2.388-5.946,2.248-2.235,4.687-4.288,6.322-7.086.736-1.259,2.153-2.391.5-3.86-1.306-1.157-2.8-2.027-4.566-.928-3.316,2.068-6.595,4.2-9.889,6.3-1.779.768-3.649,1.408-4.621,3.306a2.144,2.144,0,0,0-.867.573h0c-2.009-.305-3.556.99-5.329,1.505-3.533,1.028-7.059,1.632-9.654-2.012.76-1.978,2.462-3.247,3.642-4.889,1.745-2.429,3.265-5.148.409-7.938-1.149-1.328-2.331-1.687-3.578-.122a.392.392,0,0,0-.436.347c-9.657,4.354-17.589,11.3-26,17.49-8.522,6.272-15.7,14.584-26.841,16.742-1.451.28-2.713,1.939-3.9,3.126-5.289,5.306-10.517,10.672-15.767,16.016l-1.5,3.038-.447.045-.445-.061-1.386,1.352c-8.171,9.572-15.288,20.362-29.42,25.666,4.767-10.3,11.487-16.962,18.291-23.561l1.014-.993,4.238-5.339-4.021-1.318-1.148.9a5.658,5.658,0,0,0-3.252,3.68l-.026.032a4.049,4.049,0,0,0-3.2,3.406l-2.678,2.976h0l-3.565,3.578c-3.58,3.363-5.931,7.747-9.212,11.3-2.685,2.91-4.807,5.707-2.216,9.3,2.631,3.651,6.561,2.36,9.782.925a44.054,44.054,0,0,0,8.483-5.461c9.463-7.21,16.147-16.987,23.687-25.971,7.8-10.79,19.714-15.725,30.907-21.682a10.942,10.942,0,0,1,4.489-3.7c1.349-1.345,2.552-2.916,4.691-3.042a5.617,5.617,0,0,1,3.323-2.447,17.245,17.245,0,0,1,7.338-6.942c2.033-1.816,3.963-3.766,6.123-5.416,3.048-2.328,4.931-1.4,5.453,2.375-.092,1.874,1.8,2.6,2.365,4.1q1.861.125,3.718.254c.986,1.853,3.114.972,4.5,1.877l3.489-.2q4.5-1.987,9-3.977a4.258,4.258,0,0,1,4.036-.956c1.042-1.191,1.323-2.006,1.072-2.429.251.423-.03,1.238-1.071,2.429a11.571,11.571,0,0,0-1.763,5.672c2.194,3.076,4.955,4.914,8.934,4.091l10.4.244,6.808-1.964a15.194,15.194,0,0,0,10.253-5.092l4.385-1.647c.9,5.773,5.009,5.859,9.461,5.329a.7.7,0,0,1,.744.245c4.895,1.033,9.213-.821,13.526-2.7,0,0,12.693-7.312,13.671-8.7S572.218,280.327,570.494,279.354ZM536.5,288.087l-1.869,1.016,1.869-1.017a1.877,1.877,0,0,1,.923-.732A1.879,1.879,0,0,0,536.5,288.087Zm-.395-4.7c-2.486,1.133-4.844,2.544-7.26,3.831l-9.342,4.04v0c-1.652.438-3.612,1.939-4.863-.047-1.026-1.631.8-2.942,1.745-4.228,6.427-3.829,12.654-8.1,20.293-9.272C539.311,279.886,539.7,281.749,536.107,283.388Z" transform="translate(-320.29 -216.045)" fill="#f15942"/>
    <path id="Path_141" data-name="Path 141" d="M392.215,296.28c5.548-1.751,10.262-5.194,15.521-7.531,1.5-.666,3.073-1.141,4.1.2,1.165,1.517-.239,2.79-1.269,3.835-1.313,1.332-2.8,2.492-4.135,3.8q-13.78,13.559-27.525,27.151l4.022,1.318,2.817-1.368c11.6-12,24.22-22.9,36.622-34.042,2.8-2.516,5.706-4.991,6.035-9.153.148-1.872.548-3.775-1.5-5.036s-2.91.734-4.35,1.317c-3.437,1.391-7.031,5.775-10.666,2.4-5.452-5.062-10.668-3.746-16.031-.986-2.07,1.065-6,.528-5.593,4.716l2.37,1.42a30.972,30.972,0,0,1,9.374-3.161c1.587-.279,3.712-.772,4.544,1.1a3.558,3.558,0,0,1-2.142,4.568c-4.13,1.575-7.721,4.523-12.244,5.008-1.586.17-3.708,1.078-4.723-.529-1.263-2,.568-3.381,1.95-4.668a8.117,8.117,0,0,0,.97-1.36q-.047-1.189-.095-2.378c-5.448-1.034-7,3.3-9.225,6.7h0l-3.072.267c-1.587-1.724-3.659-2.937-5.893-1.436a35.749,35.749,0,0,1-5.744,2.885l-.659.191c-.029.045-.063.076-.092.119-3.994,1.622-8.242,2.995-9.95,3.529l-.794.245c-3.345.518-6.718.891-10.02,1.595-2.974.634-5.848.842-7.337-2.272-1.669-3.492-.533-6.626,2.445-9a16.03,16.03,0,0,1,7.533-3.624c2.04-.317,4.238-.29,6.068-1.1,1.868-.822,4.7-1.6,4.042-4.541-.575-2.562-3.027-3.418-5.327-3.319-3.19.137-6.619.657-9.1,2.628-8.828,7.006-18.807,7.587-29.314,6.043-1.448-.213-3.386-.718-3.844,1.192s1.014,2.943,2.831,3.479a21.168,21.168,0,0,0,9.449.886c8.013-1.692,7.938-1.678,9.373,6.1a75.852,75.852,0,0,0,2.186,7.571c5.666,3.1,11.806,2.644,17.918,2.393,4.319-.162,29.247-8.9,29.247-8.9C384.2,298.561,388.16,297.56,392.215,296.28Z" transform="translate(-309.905 -216.774)" fill="#f15942"/>
  </g>
</svg>
